<svg width="1080" height="1080" viewBox="0 0 1080 1080" fill="none" xmlns="http://www.w3.org/2000/svg">
<path d="M321.341 534.897C335.687 539.476 346.924 547.187 355.053 558.031C363.183 568.634 367.247 581.767 367.247 597.43C367.247 619.599 358.64 636.708 341.425 648.757C324.449 660.565 299.584 666.469 266.828 666.469H137V413.447H259.655C290.259 413.447 313.69 419.351 329.949 431.159C346.446 442.966 354.695 458.991 354.695 479.233C354.695 491.522 351.706 502.487 345.729 512.125C339.99 521.764 331.861 529.355 321.341 534.897ZM194.741 457.545V517.186H252.482C266.828 517.186 277.707 514.656 285.118 509.595C292.53 504.535 296.236 497.065 296.236 487.185C296.236 477.305 292.53 469.955 285.118 465.136C277.707 460.075 266.828 457.545 252.482 457.545H194.741ZM262.524 622.371C277.826 622.371 289.303 619.84 296.954 614.78C304.844 609.719 308.789 601.888 308.789 591.285C308.789 570.32 293.367 559.838 262.524 559.838H194.741V622.371H262.524Z" fill="white"/>
<path d="M407.289 472.003H463.237V666.469H407.289V472.003ZM435.263 444.894C424.982 444.894 416.613 441.882 410.158 435.857C403.702 429.833 400.475 422.363 400.475 413.447C400.475 404.531 403.702 397.061 410.158 391.036C416.613 385.012 424.982 382 435.263 382C445.544 382 453.912 384.892 460.368 390.675C466.823 396.458 470.051 403.688 470.051 412.363C470.051 421.761 466.823 429.592 460.368 435.857C453.912 441.882 445.544 444.894 435.263 444.894Z" fill="white"/>
<path d="M584.379 669.36C562.621 669.36 545.645 663.577 533.452 652.01C521.258 640.203 515.161 623.575 515.161 602.129V398.266H571.109V598.876C571.109 607.069 573.141 613.455 577.206 618.033C581.51 622.371 587.487 624.539 595.138 624.539C598.007 624.539 600.876 624.178 603.745 623.455C606.853 622.732 609.244 621.889 610.918 620.925L613.429 664.661C604.104 667.794 594.421 669.36 584.379 669.36Z" fill="white"/>
<path d="M710.113 669.36C688.355 669.36 671.38 663.577 659.186 652.01C646.992 640.203 640.895 623.575 640.895 602.129V398.266H696.843V598.876C696.843 607.069 698.876 613.455 702.94 618.033C707.244 622.371 713.221 624.539 720.872 624.539C723.741 624.539 726.61 624.178 729.48 623.455C732.588 622.732 734.979 621.889 736.652 620.925L739.163 664.661C729.838 667.794 720.155 669.36 710.113 669.36Z" fill="white"/>
<path d="M766.63 472.003H822.578V666.469H766.63V472.003ZM794.604 444.894C784.323 444.894 775.954 441.882 769.499 435.857C763.043 429.833 759.815 422.363 759.815 413.447C759.815 404.531 763.043 397.061 769.499 391.036C775.954 385.012 784.323 382 794.604 382C804.885 382 813.253 384.892 819.708 390.675C826.164 396.458 829.392 403.688 829.392 412.363C829.392 421.761 826.164 429.592 819.708 435.857C813.253 441.882 804.885 444.894 794.604 444.894Z" fill="white"/>
<path d="M848.68 666.469H1028V699H848.68V666.469Z" fill="white"/>
</svg>
